<svg xmlns="http://www.w3.org/2000/svg" id="Layer_1" width="482.0426" height="218.383" viewBox="0 0 482.0426 218.383"><defs><style>.cls-1{fill:#fff;}</style></defs><path class="cls-1" d="M42.8406,51.6237h59.4075c3.4542,0,6.1856,1.4948,8.1945,4.4823.8853,1.5424,1.33,3.1523,1.33,4.8337v15.97H43.2633c-5.4192,0-9.8559,2.1955-13.3099,6.5845-2.1955,2.8962-3.2913,6.1399-3.2913,9.7368v14.3581c0,4.2957,1.5146,8.0793,4.5517,11.3468,1.4452,1.3558,2.6144,2.267,3.5018,2.7315.8396.5598,1.7746.9806,2.801,1.2605,1.9632.7007,3.456,1.0521,4.4843,1.0521h69.5614v16.1804c0,2.5687-1.1453,4.9012-3.4322,7.0034-1.7746,1.3558-3.7358,2.0327-5.8818,2.0327h-59.5465c-8.5935,0-16.6232-2.6382-24.095-7.9165-1.2626-.8853-3.0372-2.4039-5.324-4.5518-2.3821-2.5687-3.992-4.5756-4.8317-6.0227-1.3995-2.1479-2.4536-4.0198-3.1523-5.6039-2.6163-5.4173-3.9245-11.4877-3.9245-18.2112v-12.8892c0-7.3309,1.588-13.9393,4.7643-19.825.8417-1.6774,1.9851-3.593,3.4322-5.7409.3732-.4208.7702-.8873,1.191-1.4015.7008-.8397,1.4928-1.7508,2.3801-2.7335,2.4754-2.4258,4.4844-4.1071,6.0248-5.0421,2.6163-1.868,5.2069-3.3627,7.7736-4.4823,5.326-2.1022,10.6242-3.1523,15.9006-3.1523"></path><path class="cls-1" d="M181.536,51.6247h20.5217c4.1569,0,7.6347,1.729,10.4396,5.1831.7463,1.0283,1.6794,2.6144,2.801,4.7622.1866.2819.3514.5618.4903.8417.4168.6531,4.0178,6.9577,10.7849,18.9099,1.9155,3.4124,4.1111,7.2853,6.5865,11.6286,15.3645,27.1321,23.2533,41,23.6742,41.6054l8.1984,14.642h-21.578c-5.6951,0-9.8976-2.6878-12.6052-8.0555-1.9195-3.2694-3.3171-5.6992-4.2044-7.2853-.7465-1.3538-1.1692-2.0784-1.2626-2.1717h-66.9609c-.0933,0-.2004.0456-.3136.1409-.1191.0933-.2005.2779-.2462.5598l-6.3046,11.0649c-2.8487,3.8292-6.6302,5.7468-11.3468,5.7468h-21.3635c-.0914,0-.1409-.0139-.1409-.0377v-.1052c10.3185-18.2568,19.3089-34.0859,26.9694-47.4892,6.0684-10.6937,10.9715-19.3327,14.7075-25.9153,5.7885-10.2271,8.8257-15.5512,9.1055-15.972.7465-1.3995,1.5425-2.6362,2.3821-3.7121,2.7096-2.8942,5.9314-4.3414,9.6654-4.3414M191.8326,72.4284l-21.9233,38.5921h43.8465c-14.3363-25.1213-21.6433-37.9866-21.9232-38.5921"></path><path class="cls-1" d="M269.4622,51.6237h20.5238c3.6863,0,6.4892,1.5881,8.4049,4.7622.794,1.3558,1.191,3.0372,1.191,5.0441v87.7666h-21.0837c-2.2887,0-4.4366-.9568-6.4435-2.8744-1.729-1.7707-2.5925-4.0138-2.5925-6.7235V51.6237Z"></path><path class="cls-1" d="M320.4018,51.6237h85.0807c2.7096,0,4.9507.8179,6.7234,2.4516.9826.935,1.6159,1.7072,1.8939,2.3106.8417,1.6377,1.2605,3.0134,1.2605,4.1329v16.5338h-39.8328v72.144h-16.2499c-2.2888,0-4.4387-.9131-6.4456-2.7335-.0476-.0457-.0933-.1151-.139-.2104-.1409-.137-.3275-.3494-.5638-.6273-1.3519-1.7767-2.0287-3.597-2.0287-5.4649v-63.1079h-39.5747v-12.8911c0-3.3151.0933-4.9945.2819-5.0441.4208-1.866,1.1413-3.3608,2.1717-4.4803,1.1176-.9826,1.9354-1.5881,2.4496-1.8223,1.1671-.796,2.8247-1.1911,4.9726-1.1911"></path><path class="cls-1" d="M454.2149,24.1912l-25.3318-21.8895c-15.5968,13.4807-15.5968,35.3365,0,48.8172l7.0193,6.0684,18.3125-15.8271c5.4887-4.7384,5.4887-12.4266,0-17.169"></path><path class="cls-1" d="M469.012,34.2834h0l-9.9354-8.5855c5.4887,4.7424,5.4887,12.4306,0,17.169l-18.3104,15.8251-56.8489,49.1329c15.5968,13.4807,40.8868,13.4807,56.4876,0l28.6071-24.7223c15.5987-13.4807,15.5987-35.3365,0-48.8192"></path><path class="cls-1" d="M6.3311,215.6744v-35.7744h26.5259v6.0518H13.5543v7.9307h17.9604v6.0273H13.5543v9.7373h19.9858v6.0273H6.3311Z"></path><path class="cls-1" d="M39.6412,179.9h13.2017c2.9775,0,5.2466.2275,6.8086.6826,2.0986.6191,3.896,1.7168,5.3931,3.2949,1.4966,1.5781,2.6357,3.5098,3.4165,5.7959.7808,2.2852,1.1714,5.1045,1.1714,8.4551,0,2.9453-.3662,5.4824-1.0981,7.6143-.895,2.6025-2.1719,4.709-3.8315,6.3203-1.2529,1.2197-2.9448,2.1719-5.0757,2.8545-1.5947.5049-3.7256.7568-6.3936.7568h-13.5923v-35.7744ZM46.8643,185.9517v23.6953h5.3931c2.0171,0,3.4731-.1143,4.3682-.3418,1.1714-.293,2.1431-.7891,2.916-1.4883.7725-.6992,1.4033-1.8506,1.8911-3.4531.4883-1.6025.7324-3.7861.7324-6.5527s-.2441-4.8887-.7324-6.3691c-.4878-1.4795-1.1714-2.6357-2.0498-3.4648-.8784-.8301-1.9927-1.3906-3.3433-1.6836-1.0088-.2275-2.9854-.3418-5.9297-.3418h-3.2456Z"></path><path class="cls-1" d="M75.7086,179.9h7.2231v19.376c0,3.0742.0894,5.0674.2686,5.9785.3086,1.4639,1.0449,2.6396,2.2085,3.5264,1.1626.8867,2.7529,1.3301,4.7705,1.3301,2.0498,0,3.5952-.4189,4.6367-1.2568,1.041-.8379,1.6675-1.8672,1.8789-3.0869.2114-1.2207.3174-3.2461.3174-6.0771v-19.79h7.2231v18.79c0,4.2949-.1953,7.3291-.5854,9.1025-.3906,1.7734-1.1104,3.2695-2.1597,4.4902-1.0493,1.2197-2.4526,2.1924-4.2095,2.916-1.7573.7236-4.0513,1.0859-6.8818,1.0859-3.4165,0-6.0073-.3945-7.7725-1.1836s-3.1602-1.8145-4.1851-3.0752-1.7002-2.582-2.0254-3.9648c-.4722-2.0508-.7075-5.0762-.7075-9.0781v-19.083Z"></path><path class="cls-1" d="M110.0191,204.0338l7.0283-.6826c.4229,2.3584,1.2812,4.0918,2.5742,5.1973,1.2935,1.1064,3.0386,1.6602,5.2349,1.6602,2.3262,0,4.0791-.4922,5.2588-1.4766,1.1792-.9844,1.769-2.1357,1.769-3.4531,0-.8457-.248-1.5654-.7441-2.1602-.4966-.5938-1.3628-1.1104-2.5991-1.5488-.8462-.293-2.7739-.8135-5.7837-1.5625-3.8721-.959-6.5884-2.1387-8.1504-3.5381-2.1963-1.9688-3.2944-4.3682-3.2944-7.1992,0-1.8213.5161-3.5264,1.5498-5.1123,1.0327-1.5859,2.5215-2.7939,4.4658-3.624,1.9438-.8291,4.2905-1.2441,7.04-1.2441,4.4902,0,7.8701.9844,10.1396,2.9531,2.269,1.9678,3.4609,4.5957,3.5747,7.8818l-7.2231.3174c-.3091-1.8389-.9722-3.1602-1.9888-3.9658-1.0171-.8057-2.542-1.208-4.5757-1.208-2.0986,0-3.7422.4316-4.9292,1.2939-.7651.5527-1.147,1.293-1.147,2.2207,0,.8457.3574,1.5693,1.0737,2.1709.9106.7656,3.1235,1.5625,6.6377,2.3916,3.5137.8301,6.1128,1.6885,7.7964,2.5752,1.6841.8867,3.0015,2.0986,3.9536,3.6357.9517,1.5371,1.4272,3.4365,1.4272,5.6982,0,2.0498-.5693,3.9697-1.708,5.7588-1.1392,1.79-2.7495,3.1201-4.832,3.9902s-4.6772,1.3057-7.7842,1.3057c-4.5229,0-7.9966-1.0459-10.4204-3.1357-2.4243-2.0908-3.8721-5.1367-4.3438-9.1396Z"></path><path class="cls-1" d="M154.5792,215.6744v-15.0566l-13.1045-20.7178h8.4678l8.4189,14.1533,8.2485-14.1533h8.3213l-13.1533,20.7666v15.0078h-7.1987Z"></path><path class="cls-1" d="M176.6881,204.0338l7.0283-.6826c.4229,2.3584,1.2812,4.0918,2.5742,5.1973,1.2935,1.1064,3.0386,1.6602,5.2349,1.6602,2.3262,0,4.0791-.4922,5.2588-1.4766,1.1792-.9844,1.769-2.1357,1.769-3.4531,0-.8457-.248-1.5654-.7441-2.1602-.4966-.5938-1.3628-1.1104-2.5991-1.5488-.8462-.293-2.7739-.8135-5.7837-1.5625-3.8721-.959-6.5884-2.1387-8.1504-3.5381-2.1963-1.9688-3.2944-4.3682-3.2944-7.1992,0-1.8213.5161-3.5264,1.5498-5.1123,1.0327-1.5859,2.5215-2.7939,4.4658-3.624,1.9438-.8291,4.2905-1.2441,7.04-1.2441,4.4902,0,7.8701.9844,10.1396,2.9531,2.269,1.9678,3.4609,4.5957,3.5747,7.8818l-7.2231.3174c-.3091-1.8389-.9722-3.1602-1.9888-3.9658-1.0171-.8057-2.542-1.208-4.5757-1.208-2.0986,0-3.7422.4316-4.9292,1.2939-.7651.5527-1.147,1.293-1.147,2.2207,0,.8457.3574,1.5693,1.0737,2.1709.9106.7656,3.1235,1.5625,6.6377,2.3916,3.5137.8301,6.1128,1.6885,7.7964,2.5752,1.6841.8867,3.0015,2.0986,3.9536,3.6357.9517,1.5371,1.4272,3.4365,1.4272,5.6982,0,2.0498-.5693,3.9697-1.708,5.7588-1.1392,1.79-2.7495,3.1201-4.832,3.9902s-4.6772,1.3057-7.7842,1.3057c-4.5229,0-7.9966-1.0459-10.4204-3.1357-2.4243-2.0908-3.8721-5.1367-4.3438-9.1396Z"></path><path class="cls-1" d="M225.7384,215.6744v-35.7744h11.5913c4.3926,0,7.2559.1787,8.5898.5361,2.0498.5371,3.7656,1.7051,5.1494,3.502,1.3818,1.7979,2.0742,4.1201,2.0742,6.9678,0,2.1953-.3994,4.042-1.1963,5.5391s-1.8096,2.6719-3.0381,3.5264c-1.2285.8535-2.4766,1.4189-3.7461,1.6963-1.7246.3408-4.2217.5117-7.4912.5117h-4.71v13.4951h-7.2231ZM232.9615,185.9517v10.1514h3.9531c2.8467,0,4.7505-.1865,5.7109-.5615.959-.374,1.7119-.959,2.2568-1.7568.5449-.7969.8174-1.7236.8174-2.7822,0-1.3008-.3828-2.375-1.1465-3.2207-.7656-.8457-1.7334-1.375-2.9043-1.5859-.8628-.1631-2.5952-.2441-5.1978-.2441h-3.4897Z"></path><path class="cls-1" d="M266.149,215.6744l-10.4443-25.916h7.1992l4.8799,13.2266,1.416,4.417c.374-1.123.6094-1.8623.707-2.2207.2275-.7324.4717-1.4639.7324-2.1963l4.9297-13.2266h7.0518l-10.2979,25.916h-6.1738Z"></path><path class="cls-1" d="M298.7037,189.7584v5.4668h-4.6855v10.4443c0,2.1143.0449,3.3467.1338,3.6963.0898.3506.293.6387.6104.8672.3174.2275.7041.3408,1.1592.3408.6348,0,1.5537-.2197,2.7578-.6582l.5859,5.3193c-1.5947.6836-3.4004,1.0254-5.418,1.0254-1.2363,0-2.3506-.208-3.3428-.6221-.9932-.415-1.7207-.9521-2.1846-1.6113-.4639-.6582-.7852-1.5498-.9639-2.6719-.1465-.7969-.2197-2.4072-.2197-4.832v-11.2979h-3.1475v-5.4668h3.1475v-5.1494l6.8818-4.002v9.1514h4.6855Z"></path><path class="cls-1" d="M303.4615,215.6744v-6.8574h6.8574v6.8574h-6.8574Z"></path><path class="cls-1" d="M331.4761,215.6744v-35.4824h7.2236v29.4551h17.9609v6.0273h-25.1846Z"></path><path class="cls-1" d="M373.6451,189.7584v5.4668h-4.6855v10.4443c0,2.1143.0449,3.3467.1338,3.6963.0898.3506.293.6387.6104.8672.3174.2275.7041.3408,1.1592.3408.6348,0,1.5537-.2197,2.7578-.6582l.5859,5.3193c-1.5947.6836-3.4004,1.0254-5.418,1.0254-1.2363,0-2.3506-.208-3.3428-.6221-.9932-.415-1.7207-.9521-2.1846-1.6113-.4639-.6582-.7852-1.5498-.9639-2.6719-.1465-.7969-.2197-2.4072-.2197-4.832v-11.2979h-3.1475v-5.4668h3.1475v-5.1494l6.8818-4.002v9.1514h4.6855Z"></path><path class="cls-1" d="M402.1715,215.6744h-6.3691v-3.8066c-1.0576,1.4805-2.3057,2.583-3.7461,3.3066-1.4395.7236-2.8916,1.0859-4.3555,1.0859-2.9775,0-5.5273-1.2002-7.6504-3.5996s-3.1846-5.7471-3.1846-10.042c0-4.3926,1.0332-7.7314,3.0996-10.0176,2.0654-2.2852,4.6768-3.4287,7.833-3.4287,2.8955,0,5.4014,1.2041,7.5156,3.6123v-12.8848h6.8574v35.7744ZM383.8697,202.1549c0,2.7666.3818,4.7676,1.1465,6.0029,1.1064,1.79,2.6514,2.6846,4.6367,2.6846,1.5781,0,2.9199-.6709,4.0264-2.0127,1.1064-1.3428,1.6592-3.3477,1.6592-6.0156,0-2.9775-.5361-5.1201-1.6104-6.4307-1.0732-1.3086-2.4482-1.9639-4.124-1.9639-1.627,0-2.9893.6465-4.0869,1.9395-1.0986,1.2939-1.6475,3.2256-1.6475,5.7959Z"></path><path class="cls-1" d="M408.9312,215.6744v-6.8574h6.8574v6.8574h-6.8574Z"></path></svg>